<svg xmlns="http://www.w3.org/2000/svg" width="32" height="31" viewBox="0 0 32 31" fill="none">
  <path d="M30.4062 0.25L17.9199 9.52373L20.2289 4.05235L30.4062 0.25Z" fill="#E2761B" stroke="#E2761B" stroke-width="0.3125" stroke-linecap="round" stroke-linejoin="round"/>
  <path d="M1.58203 0.25L13.9679 9.61157L11.7718 4.05235L1.58203 0.25Z" fill="#E4761B" stroke="#E4761B" stroke-width="0.3125" stroke-linecap="round" stroke-linejoin="round"/>
  <path d="M25.9134 21.7461L22.5879 26.841L29.7032 28.7986L31.7487 21.859L25.9134 21.7461Z" fill="#E4761B" stroke="#E4761B" stroke-width="0.3125" stroke-linecap="round" stroke-linejoin="round"/>
  <path d="M0.263672 21.859L2.29661 28.7986L9.41191 26.841L6.08642 21.7461L0.263672 21.859Z" fill="#E4761B" stroke="#E4761B" stroke-width="0.3125" stroke-linecap="round" stroke-linejoin="round"/>
  <path d="M9.01009 13.1376L7.02734 16.1368L14.0924 16.4506L13.8415 8.8584L9.01009 13.1376Z" fill="#E4761B" stroke="#E4761B" stroke-width="0.3125" stroke-linecap="round" stroke-linejoin="round"/>
  <path d="M22.9772 13.1376L18.0831 8.77051L17.9199 16.4505L24.9725 16.1368L22.9772 13.1376Z" fill="#E4761B" stroke="#E4761B" stroke-width="0.3125" stroke-linecap="round" stroke-linejoin="round"/>
  <path d="M9.41211 26.8409L13.6537 24.7704L9.98936 21.9092L9.41211 26.8409Z" fill="#E4761B" stroke="#E4761B" stroke-width="0.3125" stroke-linecap="round" stroke-linejoin="round"/>
  <path d="M18.334 24.7704L22.5881 26.8409L21.9983 21.9092L18.334 24.7704Z" fill="#E4761B" stroke="#E4761B" stroke-width="0.3125" stroke-linecap="round" stroke-linejoin="round"/>
  <path d="M22.5881 26.8411L18.334 24.7705L18.6728 27.5438L18.6352 28.7109L22.5881 26.8411Z" fill="#D7C1B3" stroke="#D7C1B3" stroke-width="0.3125" stroke-linecap="round" stroke-linejoin="round"/>
  <path d="M9.41211 26.8411L13.3651 28.7109L13.34 27.5438L13.6537 24.7705L9.41211 26.8411Z" fill="#D7C1B3" stroke="#D7C1B3" stroke-width="0.3125" stroke-linecap="round" stroke-linejoin="round"/>
  <path d="M13.4275 20.0771L9.88867 19.0355L12.3859 17.8936L13.4275 20.0771Z" fill="#233447" stroke="#233447" stroke-width="0.3125" stroke-linecap="round" stroke-linejoin="round"/>
  <path d="M18.5605 20.0771L19.6021 17.8936L22.1119 19.0355L18.5605 20.0771Z" fill="#233447" stroke="#233447" stroke-width="0.3125" stroke-linecap="round" stroke-linejoin="round"/>
  <path d="M9.41143 26.841L10.0138 21.7461L6.08594 21.859L9.41143 26.841Z" fill="#CD6116" stroke="#CD6116" stroke-width="0.3125" stroke-linecap="round" stroke-linejoin="round"/>
  <path d="M21.9863 21.7461L22.5887 26.841L25.9142 21.859L21.9863 21.7461Z" fill="#CD6116" stroke="#CD6116" stroke-width="0.3125" stroke-linecap="round" stroke-linejoin="round"/>
  <path d="M24.9725 16.1367L17.9199 16.4504L18.5725 20.0771L19.614 17.8936L22.1238 19.0355L24.9725 16.1367Z" fill="#CD6116" stroke="#CD6116" stroke-width="0.3125" stroke-linecap="round" stroke-linejoin="round"/>
  <path d="M9.88852 19.0355L12.3983 17.8936L13.4273 20.0771L14.0924 16.4504L7.02734 16.1367L9.88852 19.0355Z" fill="#CD6116" stroke="#CD6116" stroke-width="0.3125" stroke-linecap="round" stroke-linejoin="round"/>
  <path d="M7.02734 16.1367L9.98891 21.9093L9.88852 19.0355L7.02734 16.1367Z" fill="#E4751F" stroke="#E4751F" stroke-width="0.3125" stroke-linecap="round" stroke-linejoin="round"/>
  <path d="M22.1235 19.0355L21.998 21.9093L24.9722 16.1367L22.1235 19.0355Z" fill="#E4751F" stroke="#E4751F" stroke-width="0.3125" stroke-linecap="round" stroke-linejoin="round"/>
  <path d="M14.0928 16.4502L13.4277 20.0769L14.256 24.3561L14.4442 18.7216L14.0928 16.4502Z" fill="#E4751F" stroke="#E4751F" stroke-width="0.3125" stroke-linecap="round" stroke-linejoin="round"/>
  <path d="M17.9209 16.4502L17.582 18.709L17.7326 24.3561L18.5734 20.0769L17.9209 16.4502Z" fill="#E4751F" stroke="#E4751F" stroke-width="0.3125" stroke-linecap="round" stroke-linejoin="round"/>
  <path d="M18.5732 20.0777L17.7324 24.3569L18.3348 24.771L21.9991 21.9099L22.1246 19.0361L18.5732 20.0777Z" fill="#F6851B" stroke="#F6851B" stroke-width="0.3125" stroke-linecap="round" stroke-linejoin="round"/>
  <path d="M9.88867 19.0361L9.98906 21.9099L13.6534 24.771L14.2557 24.3569L13.4275 20.0777L9.88867 19.0361Z" fill="#F6851B" stroke="#F6851B" stroke-width="0.3125" stroke-linecap="round" stroke-linejoin="round"/>
  <path d="M18.6356 28.7116L18.6733 27.5445L18.3596 27.2685H13.6286L13.34 27.5445L13.3651 28.7116L9.41211 26.8418L10.7925 27.9712L13.5909 29.9163H18.3972L21.2082 27.9712L22.5886 26.8418L18.6356 28.7116Z" fill="#C0AD9E" stroke="#C0AD9E" stroke-width="0.3125" stroke-linecap="round" stroke-linejoin="round"/>
  <path d="M18.3344 24.7706L17.732 24.3564H14.2559L13.6536 24.7706L13.3398 27.5439L13.6285 27.2678H18.3595L18.6732 27.5439L18.3344 24.7706Z" fill="#161616" stroke="#161616" stroke-width="0.3125" stroke-linecap="round" stroke-linejoin="round"/>
  <path d="M30.9332 10.1261L31.9999 5.00608L30.4061 0.25L18.334 9.21L22.9771 13.1378L29.5403 15.0578L30.9959 13.3637L30.3685 12.912L31.3724 11.9959L30.5944 11.3935L31.5983 10.628L30.9332 10.1261Z" fill="#763D16" stroke="#763D16" stroke-width="0.3125" stroke-linecap="round" stroke-linejoin="round"/>
  <path d="M0 5.00608L1.06667 10.1261L0.38902 10.628L1.39294 11.3935L0.627451 11.9959L1.63137 12.912L1.00392 13.3637L2.44706 15.0578L9.0102 13.1378L13.6533 9.21L1.58118 0.25L0 5.00608Z" fill="#763D16" stroke="#763D16" stroke-width="0.3125" stroke-linecap="round" stroke-linejoin="round"/>
  <path d="M29.54 15.0577L22.9769 13.1377L24.9722 16.1369L21.998 21.9095L25.9133 21.8593H31.7486L29.54 15.0577Z" fill="#F6851B" stroke="#F6851B" stroke-width="0.3125" stroke-linecap="round" stroke-linejoin="round"/>
  <path d="M9.01034 13.1377L2.4472 15.0577L0.263672 21.8593H6.08642L9.98916 21.9095L7.02759 16.1369L9.01034 13.1377Z" fill="#F6851B" stroke="#F6851B" stroke-width="0.3125" stroke-linecap="round" stroke-linejoin="round"/>
  <path d="M17.9205 16.4512L18.3346 9.21038L20.2421 4.05273H11.7715L13.6538 9.21038L14.0931 16.4512L14.2436 18.7351L14.2562 24.357H17.7323L17.7574 18.7351L17.9205 16.4512Z" fill="#F6851B" stroke="#F6851B" stroke-width="0.3125" stroke-linecap="round" stroke-linejoin="round"/>
</svg>